<?xml version="1.0" encoding="UTF-8"?>
<svg id="Layer_1" xmlns="http://www.w3.org/2000/svg" version="1.1" viewBox="0 0 1080 350">
  <!-- Generator: Adobe Illustrator 29.4.0, SVG Export Plug-In . SVG Version: 2.1.0 Build 152)  -->
  <defs>
    <style>
      .st0 {
        fill: #1b2b56;
      }

      .st1 {
        fill: #f8a241;
      }

      .st2 {
        fill: #54c8ea;
      }
    </style>
  </defs>
  <path class="st2" d="M279.01,252.45c-2.96-1.09-6.33-.39-8.41,1.98-5.45,6.22-11.57,11.96-18.35,17.08-20.48,15.46-44.79,23.83-70.45,24.3-63.15,1.15-117.45-47.58-122.69-110.52-5.93-71.25,50.38-131.14,120.41-131.14,32.28,0,62.62,12.57,85.45,35.39,2.57,2.57,5,5.25,7.31,8.01,2.12,2.54,5.64,3.41,8.76,2.33h.04c5.04-1.76,6.91-8.04,3.5-12.14-2.67-3.21-5.5-6.32-8.49-9.32-27.38-27.38-64.33-41.7-103.31-39.84-68.64,3.28-124.91,58.49-129.51,127.06-5.32,79.51,57.86,145.91,136.25,145.91,29.94,0,58.36-9.51,82.2-27.5,7.64-5.77,14.55-12.21,20.69-19.21,3.62-4.12,1.93-10.48-3.22-12.35-.06-.02-.11-.04-.17-.06Z"/>
  <path class="st1" d="M216.97,119.02c6.25-6.4,20.56-2.12,21.26,8.57,1.06,16.29-19.51,9.18-24.24,19.17-3.03,6.39,3.21,20.79,9.85,22.75,16.25,4.82,21.36-9.66,30.91-8.92,15.1,1.17,16.88,24.3,2.2,27.09-13.01,2.47-15.59-10.9-31.49-7.83-6.53,1.26-14.11,13.34-12.11,19.75,4,12.84,15.68,7.42,21.06,12.69,9.4,9.21.03,24.08-12.5,20.51-11.15-3.18-3.49-22.19-18.2-23.53-14.93-1.36-22.45,10.64-18.38,24.45.99,3.36,5.93,5.62,7.09,10.71,3.35,14.62-13.44,24.46-23.36,13.44-12.02-13.35,5.58-20.7,5.9-31.86.35-12.43-13.23-19.54-24.23-16.19-9.1,2.77-1.92,23.72-18.18,23.38-8.81-.18-14.8-7.19-12.03-15.95,3.3-10.44,16.26-5.48,21.84-11.84,7.32-8.35-1.62-24.68-11.71-25.76-14.04-1.5-14.62,6.61-21.85,8.02-22.32,4.34-21.83-26.7-3.89-26.76,10.3-.03,12.87,11.84,27.61,8.95,7.38-1.45,14.47-14.47,12.08-21.75-3.33-10.15-14.88-5.77-20.86-10.84-9.13-7.74-2.31-23.55,12.33-20.28,12.2,2.72,6.15,16.6,12.43,21.18,9.59,7,26.29-2.5,26.27-14.68-.03-12.17-16.54-18.37-6.79-30.77,9.86-12.54,29.36-2.17,23.96,14.1-1.63,4.93-6.18,5.61-7.13,12.61-1.61,11.72,2.87,19.57,15.16,20.74,18.25,1.75,11.02-15.04,17.01-21.17ZM172.5,142.7c-14.83,3.33-15.39,27.89-1.52,32.28,31.93,10.09,33.74-39.51,1.52-32.28ZM193.09,189.43c2.28,3.6,16.63,3.62,15.25-6.18-2.16-15.4-21.57-3.78-15.25,6.18ZM168.63,182.27c-10.14-10.18-24.68,9.59-13.38,16.32,11.57,6.89,21.52-8.15,13.38-16.32Z"/>
  <g>
    <path class="st0" d="M325.88,166.97c25.95,5.88,32.52,21.28,32.52,35.81,0,22.49-16.95,39.27-51.2,39.27-35.98,0-52.07-17.99-52.07-31.48,0-6.92,5.02-11.76,11.94-11.76,15.4,0,11.42,22.49,40.13,22.49,14.7,0,22.83-8.13,22.83-16.43,0-5.02-2.42-10.55-12.11-12.97l-32-8.13c-25.77-6.57-30.45-20.76-30.45-34.08,0-27.68,25.6-38.06,49.65-38.06,22.14,0,48.26,12.46,48.26,29.06,0,7.09-6.05,11.24-12.97,11.24-13.15,0-10.73-18.51-37.19-18.51-13.15,0-20.41,6.05-20.41,14.7s10.38,11.42,19.38,13.49l23.7,5.36Z"/>
    <path class="st0" d="M378.63,126.32c0-11.42,7.78-14.01,15.4-14.01h8.3c8.82,0,12.97,3.46,15.92,12.97l24.74,79.92h.35l24.39-79.92c2.94-9.51,7.09-12.97,15.92-12.97h7.96c7.61,0,15.4,2.59,15.4,14.01v101.2c0,7.09-3.46,13.84-12.63,13.84s-12.63-6.75-12.63-13.84v-77.15h-.35l-26.47,82.69c-1.9,5.88-6.23,8.3-12.11,8.3s-10.21-2.42-12.11-8.3l-26.47-82.69h-.35v77.15c0,7.09-3.46,13.84-12.63,13.84s-12.63-6.75-12.63-13.84v-101.2Z"/>
    <path class="st0" d="M530.37,150.79c0-10.33,5.38-13.59,13.59-13.59h35.52c19.53,0,35.24,9.62,35.24,32.27,0,18.54-12.88,32.27-35.38,32.27h-25.76v27.6c0,6.94-4.53,11.61-11.61,11.61s-11.6-4.67-11.6-11.61v-78.55ZM553.58,183.91h21.65c9.34,0,16.28-5.66,16.28-14.44,0-10.19-7.22-14.44-18.68-14.44h-19.25v28.87Z"/>
    <path class="st0" d="M628.59,172.87c0-6.23,4.1-9.62,9.34-9.62s9.34,3.4,9.34,9.62v7.93h.28c2.41-8.63,7.08-17.55,17.12-17.55,6.51,0,11.32,4.25,11.32,10.05,0,7.64-5.09,10.33-10.19,10.33h-3.68c-8.35,0-12.88,5.8-12.88,22.93v24.06c0,5.52-2.26,10.33-10.33,10.33s-10.33-4.81-10.33-10.33v-57.74Z"/>
    <path class="st0" d="M718.46,163.25c24.91,0,38.21,16.98,38.21,38.78,0,20.66-10.05,38.92-38.21,38.92s-38.21-18.26-38.21-38.92c0-21.79,13.3-38.78,38.21-38.78ZM718.46,225.66c12.31,0,17.55-11.04,17.55-23.63,0-13.44-5.52-23.49-17.55-23.49s-17.55,10.05-17.55,23.49c0,12.6,5.24,23.63,17.55,23.63Z"/>
    <path class="st0" d="M776.49,178.67h-4.67c-5.8,0-8.21-2.26-8.21-6.79s2.41-6.79,8.21-6.79h4.67v-10.33c0-13.02,10.76-19.96,22.79-19.96,7.5,0,13.59,2.97,13.59,9.91,0,3.82-2.97,7.08-6.65,7.08-1.56,0-2.97-.42-4.53-.42-2.97,0-4.53,1.98-4.53,4.81v8.92h6.37c6.09,0,9.34,1.84,9.34,6.79s-3.26,6.79-9.34,6.79h-6.37v51.94c0,6.79-4.1,10.33-10.33,10.33s-10.33-3.54-10.33-10.33v-51.94Z"/>
    <path class="st0" d="M833.81,134.8c5.94,0,10.76,4.81,10.76,10.76s-4.81,10.76-10.76,10.76-10.76-4.81-10.76-10.76,4.81-10.76,10.76-10.76ZM823.48,173.58c0-5.52,2.26-10.33,10.33-10.33s10.33,4.81,10.33,10.33v57.04c0,5.52-2.26,10.33-10.33,10.33s-10.33-4.81-10.33-10.33v-57.04Z"/>
    <path class="st0" d="M862.82,145.7c0-6.79,4.1-10.33,10.33-10.33s10.33,3.54,10.33,10.33v84.92c0,6.79-4.1,10.33-10.33,10.33s-10.33-3.54-10.33-10.33v-84.92Z"/>
    <path class="st0" d="M918.58,205.99c0,10.9,7.08,18.82,19.11,18.82,15.57,0,15.57-10.19,23.92-10.19,4.95,0,8.49,4.25,8.49,8.07,0,12.45-19.96,18.26-32.41,18.26-28.87,0-39.77-19.53-39.77-37.5,0-24.06,14.58-40.19,39.06-40.19s37.36,16.84,37.36,33.82c0,7.08-2.12,8.92-9.06,8.92h-46.7ZM954.81,194.1c-1.13-9.48-8.21-16.42-17.41-16.42-10.33,0-16.56,6.37-18.82,16.42h36.23Z"/>
    <path class="st0" d="M988.78,172.87c0-6.23,4.1-9.62,9.34-9.62s9.34,3.4,9.34,9.62v7.93h.28c2.41-8.63,7.08-17.55,17.12-17.55,6.51,0,11.32,4.25,11.32,10.05,0,7.64-5.09,10.33-10.19,10.33h-3.68c-8.35,0-12.88,5.8-12.88,22.93v24.06c0,5.52-2.26,10.33-10.33,10.33s-10.33-4.81-10.33-10.33v-57.74Z"/>
  </g>
</svg>